<svg xmlns="http://www.w3.org/2000/svg" width="1440" height="900" viewBox="0 0 1440 900">
  <defs>
    <style>
      .sans { font-family: ui-sans-serif, system-ui, -apple-system, "Segoe UI", Roboto, Helvetica, Arial; }
      .mono { font-family: ui-monospace, SFMono-Regular, Menlo, Monaco, Consolas, "Liberation Mono", "Courier New", monospace; }
      .t0 { font-size: 22px; font-weight: 750; fill: #e2e8f0; }
      .t1 { font-size: 14px; fill: #94a3b8; }
      .t2 { font-size: 12px; fill: #94a3b8; }
      .t3 { font-size: 13px; fill: #e2e8f0; }
      .btn { font-size: 12px; font-weight: 750; fill: #e2e8f0; }
      .stroke { stroke: #24324a; }
      .ico { fill: none; stroke: currentColor; stroke-linecap: round; stroke-linejoin: round; stroke-width: 2; }
    </style>
  </defs>
  <rect x="0" y="0" width="1440" height="900" fill="#0b1020"/>

  <rect x="24" y="20" width="1392" height="64" rx="16" fill="#0f172a" class="stroke" stroke-width="1"/>
  <text x="52" y="60" class="sans t0">xp</text>
  <text x="92" y="60" class="sans t1">control plane</text>
  <rect x="1190" y="36" width="104" height="32" rx="10" fill="#0f172a" class="stroke" stroke-width="1"/>
  <text x="1242" y="52" class="sans btn" text-anchor="middle" dominant-baseline="middle">Theme</text>
  <rect x="1306" y="36" width="86" height="32" rx="10" fill="#0f172a" class="stroke" stroke-width="1"/>
  <text x="1349" y="52" class="sans btn" text-anchor="middle" dominant-baseline="middle">Logout</text>

  <!-- Sidebar (Users active) -->
  <rect x="24" y="100" width="280" height="780" rx="16" fill="#0f172a" class="stroke" stroke-width="1"/>
  <text x="52" y="140" class="sans t2">NAV</text>
  <rect x="44" y="316" width="240" height="44" rx="12" fill="#042f2e" class="stroke" stroke-width="1"/>
  <g class="ico" style="color:#e2e8f0" transform="translate(62 328) scale(.75)">
    <path d="M5 7a4 4 0 1 0 8 0a4 4 0 1 0-8 0M3 21v-2a4 4 0 0 1 4-4h4a4 4 0 0 1 4 4v2m1-17.87a4 4 0 0 1 0 7.75M21 21v-2a4 4 0 0 0-3-3.85"/>
  </g>
  <text x="92" y="338" class="sans t3" dominant-baseline="middle">Users</text>

  <rect x="320" y="100" width="1096" height="780" rx="16" fill="#0f172a" class="stroke" stroke-width="1"/>
  <text x="356" y="144" class="sans t0">New user</text>
  <text x="356" y="170" class="sans t1">Create a new subscription owner.</text>

  <rect x="356" y="210" width="1034" height="520" rx="14" fill="#111c33" class="stroke" stroke-width="1"/>
  <text x="380" y="242" class="sans t3">User form</text>

  <text x="380" y="286" class="sans t2">Display name</text>
  <rect x="380" y="296" width="986" height="44" rx="12" fill="#0f172a" class="stroke" stroke-width="1"/>
  <text x="396" y="318" class="sans t3" dominant-baseline="middle">Customer A</text>

  <text x="380" y="368" class="sans t2">Cycle policy</text>
  <rect x="380" y="378" width="480" height="44" rx="12" fill="#0f172a" class="stroke" stroke-width="1"/>
  <text x="396" y="400" class="mono t3" dominant-baseline="middle">by_user</text>

  <text x="886" y="368" class="sans t2">Cycle day of month</text>
  <rect x="886" y="378" width="480" height="44" rx="12" fill="#0f172a" class="stroke" stroke-width="1"/>
  <text x="902" y="400" class="mono t3" dominant-baseline="middle">1</text>

  <rect x="1186" y="670" width="180" height="44" rx="12" fill="#22d3ee"/>
  <text x="1276" y="692" class="sans btn" fill="#031c22" text-anchor="middle" dominant-baseline="middle">Create user</text>
</svg>
