<svg xmlns="http://www.w3.org/2000/svg" width="100%" height="100%" viewBox="0 0 1440 900" preserveAspectRatio="xMidYMid meet">
  <defs>
    <style>
      .sans { font-family: ui-sans-serif, system-ui, -apple-system, "Segoe UI", Roboto, Helvetica, Arial; }
      .mono { font-family: ui-monospace, SFMono-Regular, Menlo, Monaco, Consolas, "Liberation Mono", "Courier New", monospace; }
      .t0 { font-size: 22px; font-weight: 750; fill: #e2e8f0; }
      .t1 { font-size: 14px; fill: #94a3b8; }
      .t2 { font-size: 12px; fill: #94a3b8; }
      .t3 { font-size: 13px; fill: #e2e8f0; }
      .btn { font-size: 12px; font-weight: 750; fill: #e2e8f0; }
      .chip { font-size: 12px; font-weight: 650; fill: #e2e8f0; }
      .stroke { stroke: #24324a; }
      .mutedStroke { stroke: #3a4a68; }
      .tick { stroke: #062a30; stroke-width: 2.6; stroke-linecap: round; stroke-linejoin: round; }
      .ico { fill: none; stroke: currentColor; stroke-linecap: round; stroke-linejoin: round; stroke-width: 2; }
    </style>
  </defs>

  <rect x="0" y="0" width="1440" height="900" fill="#0b1020"/>

  <rect x="24" y="20" width="1392" height="64" rx="16" fill="#0f172a" class="stroke" stroke-width="1"/>
  <text x="52" y="60" class="sans t0">xp</text>
  <text x="92" y="60" class="sans t1">cluster manager</text>

  <!-- Sidebar -->
  <rect x="24" y="100" width="280" height="780" rx="16" fill="#0f172a" class="stroke" stroke-width="1"/>
  <text x="52" y="140" class="sans t2">NAV</text>

  <!-- Nav items (Grants active) -->
  <rect x="44" y="160" width="240" height="44" rx="12" fill="#0f172a" class="stroke" stroke-width="1"/>
  <g class="ico" style="color:#e2e8f0" transform="translate(62 172) scale(.75)">
    <path d="M5 4h4a1 1 0 0 1 1 1v6a1 1 0 0 1-1 1H5a1 1 0 0 1-1-1V5a1 1 0 0 1 1-1m0 12h4a1 1 0 0 1 1 1v2a1 1 0 0 1-1 1H5a1 1 0 0 1-1-1v-2a1 1 0 0 1 1-1m10-4h4a1 1 0 0 1 1 1v6a1 1 0 0 1-1 1h-4a1 1 0 0 1-1-1v-6a1 1 0 0 1 1-1m0-8h4a1 1 0 0 1 1 1v2a1 1 0 0 1-1 1h-4a1 1 0 0 1-1-1V5a1 1 0 0 1 1-1"/>
  </g>
  <text x="92" y="182" class="sans t3" dominant-baseline="middle">Dashboard</text>

  <rect x="44" y="212" width="240" height="44" rx="12" fill="#0f172a" class="stroke" stroke-width="1"/>
  <g class="ico" style="color:#e2e8f0" transform="translate(62 224) scale(.75)">
    <path d="M3 7a3 3 0 0 1 3-3h12a3 3 0 0 1 3 3v2a3 3 0 0 1-3 3H6a3 3 0 0 1-3-3m0 6a3 3 0 0 1 3-3h12a3 3 0 0 1 3 3v2a3 3 0 0 1-3 3H6a3 3 0 0 1-3-3zm4-7v.01M7 16v.01"/>
  </g>
  <text x="92" y="234" class="sans t3" dominant-baseline="middle">Nodes</text>

  <rect x="44" y="264" width="240" height="44" rx="12" fill="#0f172a" class="stroke" stroke-width="1"/>
  <g class="ico" style="color:#e2e8f0" transform="translate(62 276) scale(.75)">
    <path d="M9.785 6L18 14.215l-2.054 2.054a5.81 5.81 0 1 1-8.215-8.215zM4 20l3.5-3.5M15 4l-3.5 3.5M20 9l-3.5 3.5"/>
  </g>
  <text x="92" y="286" class="sans t3" dominant-baseline="middle">Endpoints</text>

  <rect x="44" y="316" width="240" height="44" rx="12" fill="#0f172a" class="stroke" stroke-width="1"/>
  <g class="ico" style="color:#e2e8f0" transform="translate(62 328) scale(.75)">
    <path d="M5 7a4 4 0 1 0 8 0a4 4 0 1 0-8 0M3 21v-2a4 4 0 0 1 4-4h4a4 0 0 1 4 4v2m1-17.87a4 4 0 0 1 0 7.75M21 21v-2a4 4 0 0 0-3-3.85"/>
  </g>
  <text x="92" y="338" class="sans t3" dominant-baseline="middle">Users</text>

  <rect x="44" y="368" width="240" height="44" rx="12" fill="#042f2e" class="stroke" stroke-width="1"/>
  <g class="ico" style="color:#e2e8f0" transform="translate(62 380) scale(.75)">
    <path d="m16.555 3.843l3.602 3.602a2.877 2.877 0 0 1 0 4.069l-2.643 2.643a2.877 2.877 0 0 1-4.069 0l-.301-.301l-6.558 6.558a2 2 0 0 1-1.239.578L5.172 21H4a1 1 0 0 1-.993-.883L3 20v-1.172a2 2 0 0 1 .467-1.284l.119-.13L4 17h2v-2h2v-2l2.144-2.144l-.301-.301a2.877 2.877 0 0 1 0-4.069l2.643-2.643a2.877 2.877 0 0 1 4.069 0M15 9h.01"/>
  </g>
  <text x="92" y="390" class="sans t3" dominant-baseline="middle">Grants</text>

  <rect x="320" y="100" width="1096" height="780" rx="16" fill="#0f172a" class="stroke" stroke-width="1"/>
  <text x="356" y="150" class="sans t0">Create grant group</text>
  <text x="356" y="176" class="sans t2">Select access points (node × protocol). Submit as a whole group.</text>

  <rect x="356" y="210" width="1034" height="654" rx="14" fill="#0f172a" class="stroke" stroke-width="1"/>
  <text x="380" y="248" class="sans t3" font-weight="800">New group</text>
  <text x="380" y="272" class="sans t2">Uses POST /api/admin/grant-groups (no grants API). group_name is sent once.</text>

  <rect x="380" y="292" width="986" height="104" rx="14" fill="#0f172a" class="stroke" stroke-width="1"/>
  <text x="404" y="322" class="sans t2" font-weight="750">User</text>
  <rect x="404" y="332" width="320" height="32" rx="10" fill="#0f172a" class="mutedStroke" stroke-width="1"/>
  <text x="416" y="352" class="sans t3">alice (u_01H…)</text>

  <text x="740" y="322" class="sans t2" font-weight="750">Group name</text>
  <rect x="740" y="332" width="320" height="32" rx="10" fill="#0f172a" class="mutedStroke" stroke-width="1"/>
  <text x="752" y="352" class="mono t2" fill="#e2e8f0">enterprise-eu</text>

  <rect x="1236" y="332" width="106" height="32" rx="10" fill="#06b6d4"/>
  <text x="1289" y="348" class="sans btn" fill="#062a30" text-anchor="middle" dominant-baseline="middle">Create (3)</text>
  <text x="404" y="386" class="sans t2">CTA changes with selection count: Create group / Create group (N members).</text>

  <rect x="380" y="420" width="986" height="392" rx="14" fill="#0f172a" class="stroke" stroke-width="1"/>
  <text x="404" y="452" class="sans t2" font-weight="750">Access matrix</text>
  <text x="404" y="474" class="sans t2">Batch rule: if any selected, clear; else select all (no invert).</text>

  <rect x="404" y="496" width="942" height="44" fill="#111b33"/>
  <line x1="690" y1="496" x2="690" y2="800" class="stroke" stroke-width="1"/>
  <line x1="1018" y1="496" x2="1018" y2="800" class="stroke" stroke-width="1"/>
  <text x="420" y="523" class="sans t2" font-weight="750">Node</text>
  <text x="854" y="523" class="sans t2" font-weight="750" text-anchor="middle">VLESS</text>
  <text x="1182" y="523" class="sans t2" font-weight="750" text-anchor="middle">SS2022</text>

  <rect x="404" y="540" width="942" height="86" fill="#0f172a"/>
  <line x1="404" y1="626" x2="1346" y2="626" class="stroke" stroke-width="1"/>
  <text x="420" y="574" class="sans t3" font-weight="800">Tokyo-01</text>
  <text x="420" y="596" class="mono t2">n_01HZ…V9C1</text>
  <rect x="720" y="560" width="270" height="46" rx="12" fill="#0f172a" class="stroke" stroke-width="1"/>
  <rect x="736" y="575" width="16" height="16" rx="4" fill="#06b6d4"/>
  <path d="M740 583 L743 586 L749 578" class="tick"/>
  <text x="762" y="587" class="mono t2">port 443</text>
  <rect x="1048" y="560" width="270" height="46" rx="12" fill="#0f172a" class="stroke" stroke-width="1"/>
  <rect x="1064" y="575" width="16" height="16" rx="4" fill="#06b6d4"/>
  <path d="M1068 583 L1071 586 L1077 578" class="tick"/>
  <text x="1090" y="587" class="mono t2">port 8443</text>

  <rect x="404" y="626" width="942" height="86" fill="#0f172a"/>
  <line x1="404" y1="712" x2="1346" y2="712" class="stroke" stroke-width="1"/>
  <text x="420" y="660" class="sans t3" font-weight="800">Singapore-02</text>
  <text x="420" y="682" class="mono t2">n_01HZ…A1F0</text>
  <rect x="720" y="646" width="270" height="46" rx="12" fill="#0f172a" class="stroke" stroke-width="1"/>
  <rect x="736" y="661" width="16" height="16" rx="4" fill="#0f172a" class="mutedStroke" stroke-width="1"/>
  <text x="762" y="673" class="sans t2" fill="#94a3b8">(off)</text>
  <rect x="1048" y="646" width="270" height="46" rx="12" fill="#111b33" class="stroke" stroke-width="1" opacity="0.85"/>
  <text x="1064" y="673" class="sans t2" fill="#94a3b8">No endpoint</text>

  <rect x="404" y="712" width="942" height="88" fill="#0f172a"/>
  <text x="420" y="746" class="sans t3" font-weight="800">Frankfurt-03</text>
  <text x="420" y="768" class="mono t2">n_01HZ…2Q9B</text>
  <rect x="720" y="732" width="270" height="48" rx="12" fill="#0f172a" class="stroke" stroke-width="1"/>
  <rect x="736" y="748" width="16" height="16" rx="4" fill="#06b6d4"/>
  <path d="M740 756 L743 759 L749 751" class="tick"/>
  <text x="762" y="760" class="mono t2">port 443</text>
  <rect x="1048" y="732" width="270" height="48" rx="12" fill="#0f172a" class="stroke" stroke-width="1"/>
  <rect x="1064" y="748" width="16" height="16" rx="4" fill="#0f172a" class="mutedStroke" stroke-width="1"/>
  <text x="1090" y="760" class="sans t2" fill="#94a3b8">(off)</text>

  <text x="380" y="846" class="sans t2">Tip: create is atomic; if any member conflicts (409), nothing is written.</text>
</svg>
